<?xml version="1.0" encoding="utf-8"?>
<!-- Generator: Adobe Illustrator 19.0.0, SVG Export Plug-In . SVG Version: 6.00 Build 0)  -->
<svg version="1.1" id="Capa_1" xmlns="http://www.w3.org/2000/svg" xmlns:xlink="http://www.w3.org/1999/xlink" x="0px" y="0px"
	 viewBox="-83 174.2 444.8 444.8" style="enable-background:new -83 174.2 444.8 444.8;" xml:space="preserve">
<style type="text/css">
	.st0{fill:#333333;}
</style>
<path class="st0" d="M351.3,288.4L329.8,267c-7.4-7-16.1-10.6-26-10.6c-10.1,0-18.7,3.5-25.7,10.6L139.4,405.7L0.7,267
	c-7-7-15.6-10.6-25.7-10.6c-9.9,0-18.6,3.5-26,10.6l-21.1,21.4c-7.2,7.2-10.8,15.9-10.8,26c0,10.3,3.6,18.8,10.8,25.7l185.9,185.9
	c6.9,7.2,15.4,10.8,25.7,10.8c10.1,0,18.8-3.6,26-10.8l185.9-185.9c7-7,10.6-15.6,10.6-25.7C361.8,304.5,358.3,295.8,351.3,288.4z"
	/>
</svg>
