<?xml version="1.0" encoding="utf-8"?>
<!-- Generator: Adobe Illustrator 19.0.0, SVG Export Plug-In . SVG Version: 6.00 Build 0)  -->
<svg version="1.1" id="Capa_1" xmlns="http://www.w3.org/2000/svg" xmlns:xlink="http://www.w3.org/1999/xlink" x="0px" y="0px"
	 viewBox="-290 382.9 29.1 29.1" style="enable-background:new -290 382.9 29.1 29.1;" xml:space="preserve">
<style type="text/css">
	.st0{fill:#33A2F0;}
</style>
<g>
	<path class="st0" d="M-268.3,389c1.1,0,2-0.9,2-2v-2.1c0-1.1-0.9-2-2-2s-2,0.9-2,2v2.1C-270.3,388.1-269.4,389-268.3,389z"/>
	<path class="st0" d="M-261.1,386.4h-4.1v1c0,1.7-1.4,3.1-3.1,3.1c-1.7,0-3.1-1.4-3.1-3.1v-1h-8.2v1c0,1.7-1.4,3.1-3.1,3.1
		c-1.7,0-3.1-1.4-3.1-3.1v-1l-4.1-0.1V412h2.1h24.6l2,0L-261.1,386.4z M-263.1,410h-24.6v-16.4h24.6L-263.1,410L-263.1,410z"/>
	<path class="st0" d="M-282.6,389c1.1,0,2-0.9,2-2v-2.1c0-1.1-0.9-2-2-2s-2,0.9-2,2v2.1C-284.7,388.1-283.8,389-282.6,389z"/>
	<rect x="-279.5" y="395.8" class="st0" width="3.2" height="2.9"/>
	<rect x="-274.3" y="395.8" class="st0" width="3.2" height="2.9"/>
	<rect x="-269.5" y="395.8" class="st0" width="3.2" height="2.9"/>
	<rect x="-279.5" y="400.5" class="st0" width="3.2" height="2.9"/>
	<rect x="-274.3" y="400.5" class="st0" width="3.2" height="2.9"/>
	<rect x="-269.5" y="400.5" class="st0" width="3.2" height="2.9"/>
	<rect x="-279.5" y="405.3" class="st0" width="3.2" height="2.9"/>
	<rect x="-284.7" y="400.5" class="st0" width="3.2" height="2.9"/>
	<rect x="-284.7" y="405.3" class="st0" width="3.2" height="2.9"/>
	<rect x="-274.3" y="405.3" class="st0" width="3.2" height="2.9"/>
	<rect x="-269.5" y="405.3" class="st0" width="3.2" height="2.9"/>
</g>
</svg>
