<?xml version="1.0" encoding="utf-8"?>
<!-- Generator: Adobe Illustrator 19.0.0, SVG Export Plug-In . SVG Version: 6.00 Build 0)  -->
<svg version="1.1" id="Capa_1" xmlns="http://www.w3.org/2000/svg" xmlns:xlink="http://www.w3.org/1999/xlink" x="0px" y="0px"
	 viewBox="-49 141 512 512" style="enable-background:new -49 141 512 512;" xml:space="preserve">
<style type="text/css">
	.st0{fill:#33A2F0;}
</style>
<g>
	<g>
		<g>
			<path class="st0" d="M36.3,482.3c-11.8,0-21.3,9.6-21.3,21.3S24.6,525,36.3,525s21.3-9.6,21.3-21.3S48.1,482.3,36.3,482.3z"/>
			<path class="st0" d="M143,205c-11.8,0-21.3,9.6-21.3,21.3c0,11.8,9.6,21.3,21.3,21.3s21.3-9.6,21.3-21.3
				C164.3,214.6,154.8,205,143,205z"/>
			<path class="st0" d="M377.7,247.7c-47.1,0-85.3,38.3-85.3,85.3c0,31.8,36.6,88.9,59.6,121.5c-1.4,1-2.6,2.3-3.4,4
				c-2.3,5.1-0.3,11,4.4,13.7c-4.7,2.9-6.4,8.9-3.9,13.9c1.9,3.7,5.6,5.9,9.6,5.9c1.6,0,3.2-0.4,4.8-1.1l19-9.5l0,0l0,0
				c0.1,0,0.1-0.1,0.1-0.1c1.4-0.7,2.6-1.7,3.6-2.9C394,467.9,463,376.6,463,333C463,285.9,424.7,247.7,377.7,247.7z M377.7,453.8
				c-23.4-32.3-64-93.7-64-120.8c0-35.3,28.7-64,64-64s64,28.7,64,64C441.7,360.2,401.1,421.6,377.7,453.8z"/>
			<path class="st0" d="M377.7,311.7c-11.8,0-21.3,9.6-21.3,21.3s9.6,21.3,21.3,21.3S399,344.8,399,333S389.4,311.7,377.7,311.7z"/>
			<path class="st0" d="M62.4,624.7c22.9-32.7,59.3-89.4,59.3-121.1c0-47.1-38.3-85.3-85.3-85.3c-47.1,0-85.3,38.3-85.3,85.3
				c0,43.6,69,134.9,76.9,145.2c0.6,0.7,1.4,1.2,2.1,1.7c0.4,0.3,0.8,0.8,1.2,1c1.6,0.9,3.3,1.4,5.1,1.4l0,0l0,0
				c0.2,0,0.5-0.2,0.7-0.2c1.4-0.1,2.8-0.3,4-0.9c0,0,0,0,0,0l19.1-9.5c5.3-2.6,7.4-9,4.8-14.3C64.3,626.7,63.4,625.6,62.4,624.7z
				 M36.3,624.5c-23.4-32.3-64-93.7-64-120.8c0-35.3,28.7-64,64-64s64,28.7,64,64C100.3,530.8,59.8,592.2,36.3,624.5z"/>
			<path class="st0" d="M320.1,488.5l-33.7,16.8c-5.3,2.6-7.4,9-4.8,14.3c1.9,3.7,5.6,5.9,9.6,5.9c1.6,0,3.2-0.4,4.8-1.1l33.7-16.8
				c5.3-2.6,7.4-9,4.8-14.3C331.8,488,325.4,485.9,320.1,488.5z"/>
			<path class="st0" d="M118,589.6l-33.7,16.8c-5.3,2.6-7.4,9-4.8,14.3c1.9,3.7,5.6,5.9,9.6,5.9c1.6,0,3.2-0.4,4.8-1.1l33.7-16.8
				c5.3-2.6,7.4-9,4.8-14.3C129.7,589.1,123.3,587,118,589.6z"/>
			<path class="st0" d="M252.8,522.2L219.1,539c-5.3,2.6-7.4,9-4.8,14.3c1.9,3.7,5.6,5.9,9.6,5.9c1.6,0,3.2-0.4,4.8-1.1l33.7-16.8
				c5.3-2.6,7.4-9,4.8-14.3C264.4,521.7,258,519.6,252.8,522.2z"/>
			<path class="st0" d="M185.4,555.9l-33.7,16.8c-5.3,2.6-7.4,9-4.8,14.3c1.9,3.7,5.6,5.9,9.6,5.9c1.6,0,3.2-0.4,4.8-1.1l33.7-16.8
				c5.3-2.6,7.4-9,4.8-14.3C197.1,555.4,190.6,553.3,185.4,555.9z"/>
			<path class="st0" d="M191.9,387.2c-2.4,5.4-0.1,11.7,5.3,14.1l39.2,17.8c1.4,0.7,2.9,1,4.4,1c4.1,0,7.9-2.3,9.7-6.3
				c2.4-5.4,0.1-11.7-5.3-14.1L206,381.9C200.6,379.5,194.3,381.9,191.9,387.2z"/>
			<path class="st0" d="M319.1,455.7c4.1,0,7.9-2.3,9.7-6.3c2.4-5.4,0.1-11.7-5.3-14.1l-39.2-17.8c-5.4-2.5-11.7-0.1-14.1,5.3
				c-2.4,5.4-0.1,11.7,5.3,14.1l39.2,17.8C316.1,455.4,317.6,455.7,319.1,455.7z"/>
			<path class="st0" d="M162.4,384.5c4.1,0,7.9-2.3,9.7-6.3c2.4-5.4,0.1-11.7-5.3-14.1l-7.4-3.3c20.2-27.6,68.9-97.8,68.9-134.4
				c0-47.1-38.3-85.3-85.3-85.3s-85.3,38.3-85.3,85.3c0,43.6,69,134.9,76.9,145.2c0.1,0.1,0.2,0.2,0.3,0.3c0.7,0.9,1.6,1.5,2.6,2.1
				c0.3,0.2,0.6,0.5,1,0.7c0.1,0,0.1,0.1,0.1,0.1l19.4,8.8C159.4,384.2,160.9,384.5,162.4,384.5z M79,226.3c0-35.3,28.7-64,64-64
				s64,28.7,64,64c0,27.2-40.6,88.6-64,120.8C119.6,314.9,79,253.5,79,226.3z"/>
		</g>
	</g>
</g>
</svg>
