<?xml version="1.0" encoding="utf-8"?>
<!-- Generator: Adobe Illustrator 19.0.0, SVG Export Plug-In . SVG Version: 6.00 Build 0)  -->
<svg version="1.1" id="Capa_1" xmlns="http://www.w3.org/2000/svg" xmlns:xlink="http://www.w3.org/1999/xlink" x="0px" y="0px"
	 viewBox="-113 204 385 385" style="enable-background:new -113 204 385 385;" xml:space="preserve">
<style type="text/css">
	.st0{fill:#333333;}
</style>
<g id="Menu_1_">
	<path class="st0" d="M-113,480.7c0,6.6,5.4,12,12,12h360.9c6.6,0,12-5.4,12-12s-5.4-12-12-12H-101
		C-107.6,468.7-113,474.1-113,480.7z"/>
	<path class="st0" d="M272,396.5c0-6.6-5.4-12-12-12h-361c-6.6,0-12,5.4-12,12s5.4,12,12,12h360.9C266.6,408.5,272,403.2,272,396.5z
		"/>
	<path class="st0" d="M272,312.3c0-6.6-5.4-12-12-12H19.3c-6.6,0-12,5.4-12,12s5.4,12,12,12h240.6C266.6,324.3,272,318.9,272,312.3z
		"/>
</g>
</svg>
