<?xml version="1.0" encoding="utf-8"?>
<!-- Generator: Adobe Illustrator 19.0.0, SVG Export Plug-In . SVG Version: 6.00 Build 0)  -->
<svg version="1.1" id="Capa_1" xmlns="http://www.w3.org/2000/svg" xmlns:xlink="http://www.w3.org/1999/xlink" x="0px" y="0px"
	 viewBox="-49 141 512 512" style="enable-background:new -49 141 512 512;" xml:space="preserve">
<style type="text/css">
	.st0{fill:#333333;}
</style>
<g>
	<g>
		<path class="st0" d="M207,141c-99.3,0-180,80.7-180,180c0,33.5,9.3,66.3,26.9,94.7L196.8,646c2.7,4.4,7.6,7.1,12.7,7.1h0.1
			c5.2,0,10.1-2.8,12.8-7.3l139.2-232.5c16.6-27.8,25.4-59.7,25.4-92.2C387,221.7,306.3,141,207,141z M335.9,397.8L209.3,609.2
			L79.4,399.8C64.7,376.2,56.8,349,56.8,321c0-82.7,67.5-150.2,150.2-150.2S357.1,238.3,357.1,321
			C357.1,348.1,349.7,374.7,335.9,397.8z"/>
	</g>
	<g>
		<path class="st0" d="M207,231c-49.6,0-90,40.4-90,90c0,49.3,39.7,90,90,90c50.9,0,90-41.2,90-90C297,271.4,256.6,231,207,231z
			 M207,381.2c-33.3,0-60.2-27-60.2-60.2c0-33.1,27.1-60.2,60.2-60.2s60.1,27.1,60.1,60.2C267.1,353.7,240.8,381.2,207,381.2z"/>
	</g>
</g>
</svg>
