<?xml version="1.0" encoding="utf-8"?>
<!-- Generator: Adobe Illustrator 19.0.0, SVG Export Plug-In . SVG Version: 6.00 Build 0)  -->
<svg version="1.1" id="Capa_1" xmlns="http://www.w3.org/2000/svg" xmlns:xlink="http://www.w3.org/1999/xlink" x="0px" y="0px"
	 viewBox="-157 248.2 296.8 296.8" style="enable-background:new -157 248.2 296.8 296.8;" xml:space="preserve">
<style type="text/css">
	.st0{fill:#33A2F0;}
</style>
<g>
	<path class="st0" d="M-101.9,359l6.5,17.7c0.2,0.7,0.9,1.1,1.6,1.1s1.3-0.4,1.6-1.1l6.5-17.7c5.3-14.4,16.6-25.7,31-31l17.7-6.5
		c0.7-0.2,1.1-0.9,1.1-1.6s-0.4-1.3-1.1-1.6l-17.7-6.5c-14.4-5.3-25.7-16.6-31-31l-6.5-17.7c-0.2-0.7-0.9-1.1-1.6-1.1
		s-1.3,0.4-1.6,1.1l-6.5,17.7c-5.3,14.4-16.6,25.7-31,31l-17.7,6.5c-0.7,0.2-1.1,0.9-1.1,1.6s0.4,1.3,1.1,1.6l17.7,6.5
		C-118.5,333.3-107.2,344.6-101.9,359z"/>
	<path class="st0" d="M41.9,433.9l-17.7-6.5c-14.4-5.3-25.7-16.6-31-31l-6.5-17.7c-0.2-0.7-0.9-1.1-1.6-1.1s-1.3,0.4-1.6,1.1
		l-6.5,17.7c-5.3,14.4-16.6,25.7-31,31l-17.7,6.5c-0.7,0.2-1.1,0.9-1.1,1.6s0.4,1.3,1.1,1.6l17.7,6.5c14.4,5.3,25.7,16.6,31,31
		l6.5,17.7c0.2,0.7,0.9,1.1,1.6,1.1s1.3-0.4,1.6-1.1l6.5-17.7c5.3-14.4,16.6-25.7,31-31l17.7-6.5c0.7-0.2,1.1-0.9,1.1-1.6
		C43.1,434.8,42.6,434.2,41.9,433.9z"/>
	<path class="st0" d="M133.8,358l-12.1-4.4c-9.8-3.6-17.5-11.3-21.1-21.1l-4.4-12.1c-0.2-0.5-0.6-0.8-1.1-0.8
		c-0.5,0-0.9,0.3-1.1,0.8l-4.4,12.1c-3.6,9.8-11.3,17.5-21.1,21.1L56.5,358c-0.5,0.2-0.8,0.6-0.8,1.1s0.3,0.9,0.8,1.1l12.1,4.4
		c9.8,3.6,17.5,11.3,21.1,21.1l4.4,12.1c0.2,0.5,0.6,0.8,1.1,0.8c0.5,0,0.9-0.3,1.1-0.8l4.4-12.1c3.6-9.8,11.3-17.5,21.1-21.1
		l12.1-4.4c0.5-0.2,0.8-0.6,0.8-1.1S134.2,358.2,133.8,358z"/>
	<path class="st0" d="M104.6,516.8l-8.4-3.1c-6.8-2.5-12.2-7.9-14.7-14.7l-3.1-8.4c-0.1-0.3-0.4-0.5-0.8-0.5s-0.6,0.2-0.8,0.5
		l-3.1,8.4c-2.5,6.8-7.9,12.2-14.7,14.7l-8.4,3.1c-0.3,0.1-0.5,0.4-0.5,0.8s0.2,0.6,0.5,0.8l8.4,3.1c6.8,2.5,12.2,7.9,14.7,14.7
		l3.1,8.4c0.1,0.3,0.4,0.5,0.8,0.5s0.6-0.2,0.8-0.5l3.1-8.4c2.5-6.8,7.9-12.2,14.7-14.7l8.4-3.1c0.3-0.1,0.5-0.4,0.5-0.8
		S104.9,516.9,104.6,516.8z"/>
	<path class="st0" d="M42.5,274.9l-8.4-3.1c-6.8-2.5-12.2-7.9-14.7-14.7l-3.1-8.4c-0.1-0.3-0.4-0.5-0.8-0.5s-0.6,0.2-0.8,0.5
		l-3.1,8.4C9.2,264,3.8,269.3-3,271.8l-8.4,3.1c-0.3,0.1-0.5,0.4-0.5,0.8c0,0.3,0.2,0.6,0.5,0.8l8.4,3.1c6.8,2.5,12.2,7.9,14.7,14.7
		l3.1,8.4c0.1,0.3,0.4,0.5,0.8,0.5s0.6-0.2,0.8-0.5l3.1-8.4c2.5-6.8,7.9-12.2,14.7-14.7l8.4-3.1c0.3-0.1,0.5-0.4,0.5-0.8
		C43.1,275.4,42.9,275.1,42.5,274.9z"/>
	<path class="st0" d="M-60.6,499.5l-10.6-3.9c-8.6-3.2-15.3-9.9-18.5-18.5l-3.9-10.6c-0.1-0.4-0.5-0.7-1-0.7c-0.4,0-0.8,0.3-0.9,0.7
		l-3.9,10.6c-3.2,8.6-9.9,15.3-18.5,18.5l-10.6,3.9c-0.4,0.1-0.7,0.5-0.7,0.9c0,0.4,0.3,0.8,0.7,1l10.6,3.9
		c8.6,3.2,15.3,9.9,18.5,18.5l3.9,10.6c0.1,0.4,0.5,0.7,0.9,0.7c0.4,0,0.8-0.3,1-0.7l3.9-10.6c3.2-8.6,9.9-15.3,18.5-18.5l10.6-3.9
		c0.4-0.1,0.7-0.5,0.7-0.9S-60.2,499.6-60.6,499.5z"/>
</g>
</svg>
