<?xml version="1.0" encoding="utf-8"?>
<!-- Generator: Adobe Illustrator 19.0.0, SVG Export Plug-In . SVG Version: 6.00 Build 0)  -->
<svg version="1.1" id="Capa_1" xmlns="http://www.w3.org/2000/svg" xmlns:xlink="http://www.w3.org/1999/xlink" x="0px" y="0px"
	 viewBox="-59 151.9 491.1 491.1" style="enable-background:new -59 151.9 491.1 491.1;" xml:space="preserve">
<style type="text/css">
	.st0{fill:#33A2F0;}
</style>
<path class="st0" d="M342.5,474.9c-12,0-23.4,4.7-32,13.2c-8.6,8.6-13.4,19.8-13.4,31.8c0,12,4.7,23.2,13.4,31.8
	c8.7,8.5,20,13.2,32,13.2c24.6,0,44.6-20.2,44.6-45C387.1,495.1,367.1,474.9,342.5,474.9z M342.5,544.8c-13.8,0-25.4-11.4-25.4-25
	c0-13.6,11.6-25,25.4-25c13.6,0,24.6,11.2,24.6,25C367.1,533.7,356.1,544.8,342.5,544.8z M354.1,324.9c-1.8-1.7-4.2-2.6-6.7-2.6
	h-51.3c-5.5,0-10,4.5-10,10v82c0,5.5,4.5,10,10,10h81.4c5.5,0,10-4.5,10-10v-54.9c0-2.8-1.2-5.5-3.3-7.4L354.1,324.9z M367.5,404.4
	h-61.4v-62.1h37.4l24,21.6V404.4z M98.3,474.9c-12,0-23.4,4.7-32,13.2c-8.6,8.6-13.4,19.8-13.4,31.8c0,12,4.7,23.2,13.4,31.8
	c8.7,8.5,20,13.2,32,13.2c24.6,0,44.6-20.2,44.6-45C142.9,495.1,122.9,474.9,98.3,474.9z M98.3,544.8c-13.8,0-25.4-11.4-25.4-25
	c0-13.6,11.6-25,25.4-25c13.6,0,24.6,11.2,24.6,25C122.9,533.7,111.9,544.8,98.3,544.8z M31.6,487.1H11.5v-26.6c0-5.5-4.5-10-10-10
	s-10,4.5-10,10v36.6c0,5.5,4.5,10,10,10h30.1c5.5,0,10-4.5,10-10S37.1,487.1,31.6,487.1z M82.3,432.6c0-5.5-4.5-10-10-10H-49
	c-5.5,0-10,4.5-10,10s4.5,10,10,10H72.3C77.8,442.6,82.3,438.3,82.3,432.6z M-28.7,396.6l121.3,0.7c5.5,0,10-4.4,10.1-9.9
	c0.1-5.6-4.4-10.1-9.9-10.1l-121.3-0.7c-0.1,0-0.1,0-0.1,0c-5.5,0-10,4.4-10,9.9C-38.7,392.1-34.2,396.6-28.7,396.6z M-8.3,351.1
	H113c5.5,0,10-4.5,10-10s-4.5-10-10-10H-8.3c-5.5,0-10,4.5-10,10S-13.8,351.1-8.3,351.1z M428.4,337.6L428.4,337.6l-71.6-59.3
	c-1.8-1.5-4-2.3-6.4-2.3h-84.2v-36c0-5.5-4.5-10-10-10H1.5c-5.5,0-10,4.5-10,10v73.2c0,5.5,4.5,10,10,10s10-4.5,10-10v-63.2h234.8
	v237.1h-82c-5.5,0-10,4.5-10,10s4.5,10,10,10h122.1c5.5,0,10-4.5,10-10s-4.5-10-10-10h-20.1V296.1h80.6l65.2,54L411.4,487H401
	c-5.5,0-10,4.5-10,10s4.5,10,10,10h20.3c5.5,0,10-4.4,10-9.9l0.8-151.6C432,342.4,430.7,339.6,428.4,337.6z"/>
</svg>
